<mxfile host="app.diagrams.net" modified="2023-07-02T16:42:38.481Z" agent="Mozilla/5.0 (Windows NT 10.0; Win64; x64) AppleWebKit/537.36 (KHTML, like Gecko) Chrome/114.0.0.0 Safari/537.36" etag="AlfLHYGAKEUublYaMTc-" version="21.5.2" type="device">
  <diagram name="Page-1" id="3v0SYCVNvBl88Uh9KWf6">
    <mxGraphModel dx="880" dy="437" grid="1" gridSize="10" guides="1" tooltips="1" connect="1" arrows="1" fold="1" page="1" pageScale="1" pageWidth="850" pageHeight="1100" math="0" shadow="0">
      <root>
        <mxCell id="0" />
        <mxCell id="1" parent="0" />
        <mxCell id="NebSsFkUpjV1kpODtVpC-5" style="edgeStyle=orthogonalEdgeStyle;rounded=0;orthogonalLoop=1;jettySize=auto;html=1;exitX=0.5;exitY=1;exitDx=0;exitDy=0;exitPerimeter=0;entryX=0.5;entryY=0;entryDx=0;entryDy=0;" parent="1" source="NebSsFkUpjV1kpODtVpC-1" target="NebSsFkUpjV1kpODtVpC-3" edge="1">
          <mxGeometry relative="1" as="geometry" />
        </mxCell>
        <mxCell id="NebSsFkUpjV1kpODtVpC-1" value="START" style="strokeWidth=2;html=1;shape=mxgraph.flowchart.start_2;whiteSpace=wrap;" parent="1" vertex="1">
          <mxGeometry x="270" y="20" width="100" height="100" as="geometry" />
        </mxCell>
        <mxCell id="adP_HFBH_WwsYKWMvfxJ-2" style="edgeStyle=orthogonalEdgeStyle;rounded=0;orthogonalLoop=1;jettySize=auto;html=1;exitX=0.5;exitY=1;exitDx=0;exitDy=0;entryX=0.5;entryY=0;entryDx=0;entryDy=0;entryPerimeter=0;" edge="1" parent="1" source="NebSsFkUpjV1kpODtVpC-3" target="NebSsFkUpjV1kpODtVpC-8">
          <mxGeometry relative="1" as="geometry" />
        </mxCell>
        <mxCell id="NebSsFkUpjV1kpODtVpC-3" value="User Klick&lt;br&gt;Check Loan Details" style="shape=parallelogram;html=1;strokeWidth=2;perimeter=parallelogramPerimeter;whiteSpace=wrap;rounded=1;arcSize=12;size=0.23;" parent="1" vertex="1">
          <mxGeometry x="240" y="160" width="160" height="90" as="geometry" />
        </mxCell>
        <mxCell id="TzafzmHJcgvZPZJV2PNn-2" style="edgeStyle=orthogonalEdgeStyle;rounded=0;orthogonalLoop=1;jettySize=auto;html=1;exitX=1;exitY=0.5;exitDx=0;exitDy=0;exitPerimeter=0;" parent="1" source="NebSsFkUpjV1kpODtVpC-8" target="TzafzmHJcgvZPZJV2PNn-3" edge="1">
          <mxGeometry relative="1" as="geometry">
            <mxPoint x="460" y="390" as="targetPoint" />
          </mxGeometry>
        </mxCell>
        <mxCell id="TzafzmHJcgvZPZJV2PNn-4" value="Tidak" style="edgeLabel;html=1;align=center;verticalAlign=middle;resizable=0;points=[];" parent="TzafzmHJcgvZPZJV2PNn-2" vertex="1" connectable="0">
          <mxGeometry x="0.1259" y="-2" relative="1" as="geometry">
            <mxPoint as="offset" />
          </mxGeometry>
        </mxCell>
        <mxCell id="TzafzmHJcgvZPZJV2PNn-9" style="edgeStyle=orthogonalEdgeStyle;rounded=0;orthogonalLoop=1;jettySize=auto;html=1;exitX=0.5;exitY=1;exitDx=0;exitDy=0;exitPerimeter=0;entryX=0.5;entryY=0;entryDx=0;entryDy=0;" parent="1" source="NebSsFkUpjV1kpODtVpC-8" target="adP_HFBH_WwsYKWMvfxJ-1" edge="1">
          <mxGeometry relative="1" as="geometry">
            <mxPoint x="320" y="510" as="targetPoint" />
          </mxGeometry>
        </mxCell>
        <mxCell id="TzafzmHJcgvZPZJV2PNn-10" value="Ya" style="edgeLabel;html=1;align=center;verticalAlign=middle;resizable=0;points=[];" parent="TzafzmHJcgvZPZJV2PNn-9" vertex="1" connectable="0">
          <mxGeometry x="-0.2" y="-3" relative="1" as="geometry">
            <mxPoint as="offset" />
          </mxGeometry>
        </mxCell>
        <mxCell id="NebSsFkUpjV1kpODtVpC-8" value="Apakah Ada pinjaman yang belum lunas ?" style="strokeWidth=2;html=1;shape=mxgraph.flowchart.decision;whiteSpace=wrap;" parent="1" vertex="1">
          <mxGeometry x="250" y="290" width="140" height="140" as="geometry" />
        </mxCell>
        <mxCell id="NebSsFkUpjV1kpODtVpC-22" value="END" style="strokeWidth=2;html=1;shape=mxgraph.flowchart.terminator;whiteSpace=wrap;" parent="1" vertex="1">
          <mxGeometry x="270" y="790" width="100" height="60" as="geometry" />
        </mxCell>
        <mxCell id="TzafzmHJcgvZPZJV2PNn-1" value="END" style="strokeWidth=2;html=1;shape=mxgraph.flowchart.start_2;whiteSpace=wrap;" parent="1" vertex="1">
          <mxGeometry x="700" y="310" width="100" height="100" as="geometry" />
        </mxCell>
        <mxCell id="TzafzmHJcgvZPZJV2PNn-5" style="edgeStyle=orthogonalEdgeStyle;rounded=0;orthogonalLoop=1;jettySize=auto;html=1;exitX=1;exitY=0.5;exitDx=0;exitDy=0;" parent="1" source="TzafzmHJcgvZPZJV2PNn-3" target="TzafzmHJcgvZPZJV2PNn-1" edge="1">
          <mxGeometry relative="1" as="geometry" />
        </mxCell>
        <mxCell id="TzafzmHJcgvZPZJV2PNn-3" value="Tidak Ada Pinjaman Aktive" style="shape=parallelogram;html=1;strokeWidth=2;perimeter=parallelogramPerimeter;whiteSpace=wrap;rounded=1;arcSize=12;size=0.23;" parent="1" vertex="1">
          <mxGeometry x="460" y="310" width="210" height="100" as="geometry" />
        </mxCell>
        <mxCell id="adP_HFBH_WwsYKWMvfxJ-4" style="edgeStyle=orthogonalEdgeStyle;rounded=0;orthogonalLoop=1;jettySize=auto;html=1;exitX=0.5;exitY=1;exitDx=0;exitDy=0;entryX=0.5;entryY=0;entryDx=0;entryDy=0;" edge="1" parent="1" source="adP_HFBH_WwsYKWMvfxJ-1" target="adP_HFBH_WwsYKWMvfxJ-3">
          <mxGeometry relative="1" as="geometry" />
        </mxCell>
        <mxCell id="adP_HFBH_WwsYKWMvfxJ-1" value="Retrive data dari database" style="rounded=1;whiteSpace=wrap;html=1;absoluteArcSize=1;arcSize=14;strokeWidth=2;" vertex="1" parent="1">
          <mxGeometry x="270" y="525" width="100" height="50" as="geometry" />
        </mxCell>
        <mxCell id="adP_HFBH_WwsYKWMvfxJ-5" style="edgeStyle=orthogonalEdgeStyle;rounded=0;orthogonalLoop=1;jettySize=auto;html=1;exitX=0.5;exitY=1;exitDx=0;exitDy=0;" edge="1" parent="1" source="adP_HFBH_WwsYKWMvfxJ-3" target="NebSsFkUpjV1kpODtVpC-22">
          <mxGeometry relative="1" as="geometry" />
        </mxCell>
        <mxCell id="adP_HFBH_WwsYKWMvfxJ-3" value="Tampilkan Detail Pinjaman" style="shape=parallelogram;html=1;strokeWidth=2;perimeter=parallelogramPerimeter;whiteSpace=wrap;rounded=1;arcSize=12;size=0.23;" vertex="1" parent="1">
          <mxGeometry x="215" y="630" width="210" height="100" as="geometry" />
        </mxCell>
      </root>
    </mxGraphModel>
  </diagram>
</mxfile>
